<svg height="512" viewBox="0 0 64 64" width="512" xmlns="http://www.w3.org/2000/svg"><g id="_23-Friend_Request" data-name="23-Friend Request"><circle cx="32" cy="32" fill="#1360c4" r="31"/><circle cx="32" cy="32" fill="#1877f2" r="29"/><path d="m37 52a29 29 0 0 1 -27.448-38.357 29 29 0 1 0 49.9 27.714 28.939 28.939 0 0 1 -22.452 10.643z" fill="#1360c4"/><path d="m35.623 7.625a2.633 2.633 0 0 0 -.585 1.137c-.267 1.337.919 2.51 2.082 3.257a34.554 34.554 0 0 0 3.294 1.792l4.562 2.272c1.655.825 3.554 2.042 5.449 1.907a3.221 3.221 0 0 0 1.41-.349c1.63-.955 1.279-3.074.574-4.492a9.966 9.966 0 0 0 -3.409-3.597c-3.039-2.093-10.3-5.652-13.377-1.927z" fill="#6eadff"/><path d="m52.106 19.422a1.1 1.1 0 0 0 .011.964 2.123 2.123 0 0 0 .461.514 5.809 5.809 0 0 0 .976.758 2.382 2.382 0 0 0 1.255.342 1.117 1.117 0 0 0 .61-.181.946.946 0 0 0 .22-.241 2.414 2.414 0 0 0 -.664-3.208c-1.154-.921-2.441.049-2.869 1.052z" fill="#6eadff"/><path d="m26 30h12a6 6 0 0 1 6 6v10a2 2 0 0 1 -2 2h-20a2 2 0 0 1 -2-2v-10a6 6 0 0 1 6-6z" fill="#f7f7ff"/><circle cx="32" cy="19" fill="#f7f7ff" r="7"/><path d="m42 45h-20a2 2 0 0 1 -2-2v3a2 2 0 0 0 2 2h20a2 2 0 0 0 2-2v-3a2 2 0 0 1 -2 2z" fill="#d3d9f2"/><path d="m32 26a6.99 6.99 0 0 0 6.835-8.5 7 7 0 0 1 -13.67 0 6.99 6.99 0 0 0 6.835 8.5z" fill="#d3d9f2"/><circle cx="44" cy="45" fill="#42c505" r="9"/><path d="m44 51a8.995 8.995 0 0 1 -8.865-7.5 9 9 0 1 0 17.73 0 8.995 8.995 0 0 1 -8.865 7.5z" fill="#359e04"/><path d="m48 43h-2v-2a2 2 0 0 0 -2-2 2 2 0 0 0 -2 2v2h-2a2 2 0 0 0 -2 2 2 2 0 0 0 2 2h2v2a2 2 0 0 0 2 2 2 2 0 0 0 2-2v-2h2a2 2 0 0 0 2-2 2 2 0 0 0 -2-2z" fill="#f7f7ff"/><path d="m29 29a6.994 6.994 0 0 0 6.214-3.786 6.993 6.993 0 0 1 -9.428-9.428 7 7 0 0 0 3.214 13.214z" fill="#1157b3"/><path d="m35.523 48h-13.523a2 2 0 0 1 -2-2v-10a5.974 5.974 0 0 1 .534-2.466 6 6 0 0 0 -3.534 5.466v10a2 2 0 0 0 2 2h13.523a8.985 8.985 0 0 0 16.155 1.678 8.974 8.974 0 0 1 -13.155-4.678z" fill="#1157b3"/><path d="m32 27a8 8 0 1 0 -8-8 8.009 8.009 0 0 0 8 8zm0-14a6 6 0 1 1 -6 6 6.006 6.006 0 0 1 6-6z"/><path d="m34 45a10 10 0 1 0 10.927-9.953 7.005 7.005 0 0 0 -6.927-6.047h-12a7.009 7.009 0 0 0 -7 7v10a3 3 0 0 0 3 3h11v-2h-11a1 1 0 0 1 -1-1v-10a5.006 5.006 0 0 1 5-5h12a5 5 0 0 1 4.905 4.063 10.013 10.013 0 0 0 -8.905 9.937zm10-8a8 8 0 1 1 -8 8 8.009 8.009 0 0 1 8-8z"/><path d="m40 48h1v1a3 3 0 0 0 6 0v-1h1a3 3 0 0 0 0-6h-1v-1a3 3 0 0 0 -6 0v1h-1a3 3 0 0 0 0 6zm0-4h2a1 1 0 0 0 1-1v-2a1 1 0 0 1 2 0v2a1 1 0 0 0 1 1h2a1 1 0 0 1 0 2h-2a1 1 0 0 0 -1 1v2a1 1 0 0 1 -2 0v-2a1 1 0 0 0 -1-1h-2a1 1 0 0 1 0-2z"/><path d="m61.752 28.128 1.984-.256c-.089-.688-.2-1.383-.335-2.064l-1.963.384q.188.957.314 1.936z"/><path d="m32 2a30.029 30.029 0 0 1 28.992 22.257l1.932-.516a32.011 32.011 0 0 0 -61.224-2.064l1.893.644a30 30 0 0 1 28.407-20.321z"/><path d="m32 62a30.027 30.027 0 0 1 -28.992-37.742l-1.933-.516a32.029 32.029 0 0 0 30.925 40.258c1.029 0 2.071-.05 3.1-.148l-.2-1.991c-.957.092-1.934.139-2.9.139z"/><path d="m63.935 29.938-2 .126q.065.96.065 1.936a29.861 29.861 0 0 1 -25.16 29.611l.32 1.975a31.856 31.856 0 0 0 26.84-31.586q0-1.04-.065-2.062z"/></g></svg>